<?xml version="1.0" encoding="UTF-8"?>
<svg id="Layer_1" xmlns="http://www.w3.org/2000/svg" version="1.1" viewBox="0 0 160 160">
  <!-- Generator: Adobe Illustrator 29.6.1, SVG Export Plug-In . SVG Version: 2.1.1 Build 9)  -->
  <rect y="0" width="160" height="160" fill="none"/>
  <g>
    <path d="M91.27,103.32h-2.57v-42.28h2.57v42.28Z" fill="#fff" stroke="#fff" stroke-miterlimit="10" stroke-width="2"/>
    <path d="M129.91,81.85c0,14.31-5.93,21.47-17.79,21.47h-10.65v-42.24h10.65c5.94,0,10.39,1.72,13.35,5.15,2.96,3.44,4.44,8.64,4.44,15.62ZM127.18,81.85c0-2.78-.23-5.26-.69-7.45-.46-2.19-1.27-4.05-2.43-5.58-1.16-1.53-2.71-2.7-4.65-3.49s-4.39-1.2-7.35-1.2h-8.01v36.1h8.01c2.94,0,5.38-.41,7.32-1.24,1.94-.82,3.49-2.03,4.65-3.61s1.97-3.51,2.45-5.77c.47-2.26.71-4.85.71-7.76Z" fill="#fff" stroke="#fff" stroke-miterlimit="10" stroke-width="2"/>
  </g>
  <g>
    <path d="M53.35,102.4c-.85.89-3.78.59-5.01-.4-1.68-1.04-11.2-9.04-12.01-10.6,0-.01-2.02-2.84-2.15-4.45,0-.03,0-9.78,0-9.78,0-.31.25-.56.56-.56h2.22c.31,0,.56.25.56.56,0,3.19.16,6.41.16,9.6,0,.16.03.32.09.47-.58,1.26,12.18,11.95,12.48,12.1.55.49,1.38.49,1.93.01.31-.27.65-.57.97-.84.62-.54.64-1.48.04-2.04-2.39-2.26-7.99-7.54-9.8-9.18-.7-.64-1.11-1.53-1.12-2.48-.03-2.27,0-6.49.02-8.22,0-.5.19-.98.53-1.34.63-.68,1.69-1.83,2.4-2.54,1.08-1.08,2.14-2.06,3.16-2.96.1-.08.24-.08.33,0l2.17,1.92c.08.07.12.13.04.21-1.51,1.51-3.92,3.98-5.03,5.09-.35.35-.55.83-.55,1.32v5.82c0,.33.13.65.37.89l10.78,10.17c.21.21.19.2.41,0,1.88-1.73,7.05-6,7.45-7.85.22-1,.18-10.98.19-12.14l-.63-1.48c.18-.61-8.48-8.36-10.77-10.32-1.45-1.24-3.08-1.21-4.61.37l-7.29,6.53c-.23.22-.29.44-.5.2l-1.72-1.97c-.2-.23-.18-.57.03-.77,1.96-1.87,8.92-8.35,9.47-8.1.26-.57,4.58-.92,5.6.26l11.94,10.88s.05.05.07.07c.38.43.89,1.11,1.27,2.07.41,1.04.49,1.95.5,2.53.01,4.06.15,9.23.03,12.18-.11,2.94-8.14,9-10.89,11.7" fill="#fff"/>
    <path d="M53.07,89.19l.74.87c.45.54,1.27.57,1.77.08,1.65-1.65,4.03-4.25,4.2-4.8.13-.42.22-.81.28-1.16,0-.03,0-.07,0-.1,0-1.93,0-3.84.01-5.76,0-.31-.26-.57-.57-.56l-2.83.06c-.11,0,0,5.43,0,5.43,0,.68-.06,1.12-.37,1.85l-3.15,3.24c-.28.29-.29.64-.09.88Z" fill="#fff"/>
  </g>
  <path d="M90,160V0v160Z" fill="#fff" stroke="#fff" stroke-miterlimit="10" stroke-width="4.61"/>
  <path d="M77.6,160V0v160Z" fill="#fff" stroke="#fff" stroke-miterlimit="10" stroke-width="4.61"/>
</svg>